#N canvas 344 31 1064 612 10;
#X obj 100 100 bng 30 250 50 0 empty empty empty 17 7 0 15 -262144
-1 -1;
#X obj 388 197 + 1;
#X obj 101 101 cnv 18 28 28 empty c1-\$0 empty 7 14 0 25 -262144 -1
0;
#X obj 600 256 outlet;
#X obj 177 535 send c1-\$0 color 4 9;
#X msg 78 318 label \, color 0 22 \, label_pos 7 14;
#X obj 318 179 f 1;
#X obj 279 110 receive \$1;
#X obj 384 240 mod 3;
#X obj 402 285 select 0 1 2;
#X msg 145 341 label B \, color 2 0 \, label_pos 7 14;
#X msg 230 363 label S \, color 1 0 \, label_pos 7 14;
#X connect 0 0 6 0;
#X connect 1 0 6 1;
#X connect 5 0 4 0;
#X connect 6 0 1 0;
#X connect 6 0 8 0;
#X connect 7 0 6 0;
#X connect 8 0 3 0;
#X connect 8 0 9 0;
#X connect 9 0 5 0;
#X connect 9 1 10 0;
#X connect 9 2 11 0;
#X connect 10 0 4 0;
#X connect 11 0 4 0;
#X coords 0 -1 1 1 30 30 2 100 100;
