#N canvas 143 31 791 607 10;
#X obj 100 100 bng 30 250 50 0 empty empty empty 17 7 0 15 -262144
-1 -1;
#X obj 318 177 f;
#X obj 388 197 + 1;
#X obj 402 285 select 0 1 2 3 4;
#X obj 383 240 mod 5;
#X floatatom 470 264 5 0 0 0 - - -, f 5;
#X obj 101 101 cnv 18 28 28 empty c1-\$0 empty 7 14 0 25 -262144 -1
0;
#X obj 600 256 outlet;
#X msg 420 75 \; c1 color \$1 \$2;
#X obj 421 46 pack f f;
#X floatatom 404 14 5 0 0 0 - - -, f 5;
#X floatatom 471 16 5 0 0 0 - - -, f 5;
#X obj 177 535 send c1-\$0 color 4 9;
#X msg 121 355 label \, color 0 22;
#X msg 246 356 label B \, color 0 22;
#X msg 500 360 label O \, color 17 22;
#X msg 637 360 label X \, color 13 22;
#X msg 368 359 label T \, color 0 22;
#X obj 278 110 receive \$1;
#X connect 0 0 1 0;
#X connect 1 0 2 0;
#X connect 1 0 4 0;
#X connect 2 0 1 1;
#X connect 3 0 13 0;
#X connect 3 1 14 0;
#X connect 3 2 17 0;
#X connect 3 3 15 0;
#X connect 3 4 16 0;
#X connect 4 0 3 0;
#X connect 4 0 5 0;
#X connect 4 0 7 0;
#X connect 9 0 8 0;
#X connect 10 0 9 0;
#X connect 11 0 9 1;
#X connect 13 0 12 0;
#X connect 14 0 12 0;
#X connect 15 0 12 0;
#X connect 16 0 12 0;
#X connect 17 0 12 0;
#X connect 18 0 1 0;
#X coords 0 -1 1 1 30 30 2 100 100;
