#N canvas 348 31 1064 612 10;
#X obj 100 100 bng 30 250 50 0 empty empty empty 17 7 0 15 -262144
-1 -1;
#X obj 388 197 + 1;
#X floatatom 470 264 5 0 0 0 - - -, f 5;
#X obj 101 101 cnv 18 28 28 empty c1-\$0 empty 7 14 0 25 -262144 -1
0;
#X obj 600 256 outlet;
#X obj 177 535 send c1-\$0 color 4 9;
#X obj 383 240 mod \$1;
#X obj 279 110 receive \$2;
#X obj 402 285 select 0 3 4 1 2;
#X msg 78 318 label \, color 0 22 \, label_pos 7 14;
#X msg 144 342 label B \, color 0 22 \, label_pos 7 14;
#X msg 231 362 label T \, color 0 22 \, label_pos 7 14;
#X msg 310 381 label O \, color 17 22 \, label_pos 7 14;
#X msg 385 401 label X \, color 13 22 \, label_pos 7 14;
#X msg 468 421 label Ot \, color 18 22 \, label_pos 0 14;
#X obj 318 179 f 1;
#X connect 0 0 15 0;
#X connect 1 0 15 1;
#X connect 6 0 2 0;
#X connect 6 0 4 0;
#X connect 6 0 8 0;
#X connect 7 0 15 0;
#X connect 8 0 9 0;
#X connect 8 1 10 0;
#X connect 8 2 11 0;
#X connect 8 3 12 0;
#X connect 8 4 13 0;
#X connect 8 5 14 0;
#X connect 9 0 5 0;
#X connect 10 0 5 0;
#X connect 11 0 5 0;
#X connect 12 0 5 0;
#X connect 13 0 5 0;
#X connect 14 0 5 0;
#X connect 15 0 1 0;
#X connect 15 0 6 0;
#X coords 0 -1 1 1 30 30 2 100 100;
